<?xml version="1.0" encoding="UTF-8"?>
<svg xmlns="http://www.w3.org/2000/svg" xmlns:xlink="http://www.w3.org/1999/xlink" width="24px" height="24px" viewBox="0 0 24 24" version="1.1">
<g id="surface1">
<path style=" stroke:none;fill-rule:evenodd;fill:rgb(54.901961%,84.705882%,74.509804%);fill-opacity:1;" d="M 13.769531 5.769531 C 12.4375 5.769531 11.105469 5.769531 9.769531 5.769531 C 9.769531 4.4375 9.769531 3.105469 9.769531 1.769531 C 11.105469 1.769531 12.4375 1.769531 13.769531 1.769531 C 13.769531 3.105469 13.769531 4.4375 13.769531 5.769531 Z M 13.769531 5.769531 "/>
<path style=" stroke:none;fill-rule:evenodd;fill:rgb(54.901961%,84.705882%,74.509804%);fill-opacity:1;" d="M 9.769531 5.769531 C 9.769531 7.105469 9.769531 8.4375 9.769531 9.769531 C 7.105469 9.769531 4.4375 9.769531 1.769531 9.769531 C 1.769531 8.4375 1.769531 7.105469 1.769531 5.769531 C 4.4375 5.769531 7.105469 5.769531 9.769531 5.769531 Z M 9.769531 5.769531 "/>
<path style=" stroke:none;fill-rule:evenodd;fill:rgb(54.901961%,84.705882%,74.509804%);fill-opacity:1;" d="M 13.769531 5.769531 C 16.4375 5.769531 19.105469 5.769531 21.769531 5.769531 C 21.769531 7.105469 21.769531 8.4375 21.769531 9.769531 C 19.105469 9.769531 16.4375 9.769531 13.769531 9.769531 C 13.769531 8.4375 13.769531 7.105469 13.769531 5.769531 Z M 13.769531 5.769531 "/>
<path style=" stroke:none;fill-rule:evenodd;fill:rgb(54.901961%,84.705882%,74.509804%);fill-opacity:1;" d="M 9.769531 9.769531 C 11.105469 9.769531 12.4375 9.769531 13.769531 9.769531 C 13.769531 11.105469 13.769531 12.4375 13.769531 13.769531 C 12.4375 13.769531 11.105469 13.769531 9.769531 13.769531 C 9.769531 12.4375 9.769531 11.105469 9.769531 9.769531 Z M 9.769531 9.769531 "/>
<path style=" stroke:none;fill-rule:evenodd;fill:rgb(54.901961%,84.705882%,74.509804%);fill-opacity:1;" d="M 1.769531 13.769531 C 3.105469 13.769531 4.4375 13.769531 5.769531 13.769531 C 5.769531 16.4375 5.769531 19.105469 5.769531 21.769531 C 4.4375 21.769531 3.105469 21.769531 1.769531 21.769531 C 1.769531 19.105469 1.769531 16.4375 1.769531 13.769531 Z M 1.769531 13.769531 "/>
<path style=" stroke:none;fill-rule:evenodd;fill:rgb(54.901961%,84.705882%,74.509804%);fill-opacity:1;" d="M 17.769531 13.769531 C 19.105469 13.769531 20.4375 13.769531 21.769531 13.769531 C 21.769531 16.4375 21.769531 19.105469 21.769531 21.769531 C 20.4375 21.769531 19.105469 21.769531 17.769531 21.769531 C 17.769531 19.105469 17.769531 16.4375 17.769531 13.769531 Z M 17.769531 13.769531 "/>
<path style=" stroke:none;fill-rule:evenodd;fill:rgb(54.901961%,84.705882%,74.509804%);fill-opacity:1;" d="M 9.769531 17.769531 C 11.105469 17.769531 12.4375 17.769531 13.769531 17.769531 C 13.769531 19.105469 13.769531 20.4375 13.769531 21.769531 C 12.4375 21.769531 11.105469 21.769531 9.769531 21.769531 C 9.769531 20.4375 9.769531 19.105469 9.769531 17.769531 Z M 9.769531 17.769531 "/>
</g>
</svg>
